<svg height="512" viewBox="0 0 59 58" width="512" xmlns="http://www.w3.org/2000/svg"><g id="Page-1" fill="none" fill-rule="evenodd"><g id="030---Choking"><path id="Shape" d="m22.837 12c1.8603181-4.82107786 6.4954498-8.00045317 11.663-8" stroke="#000" stroke-linecap="round" stroke-linejoin="round" stroke-width="2"/><path id="Shape" d="m22.012 17c-.006-.166-.01-.333-.01-.5s0-.334.01-.5" stroke="#000" stroke-linecap="round" stroke-linejoin="round" stroke-width="2"/><g fill-rule="nonzero"><path id="Shape" d="m53.231 34c-.1162275 1.0258179.2870176 2.0419955 1.075 2.709.1625743.1448337.272925.3391775.314.553.3572266 1.3572137.2649494 2.7936503-.263 4.094-.3982983 1.1057227-1.5843239 1.7146803-2.715 1.394-2.1100947-.5053012-4.1917211-1.122846-6.236-1.85-.5541067-.197605-1.1679331-.1332433-1.669.175-.9962399.6887695-1.7452679 1.6789445-2.137 2.825-.661801 1.8292375-.6582606 3.8331124.01 5.66.2833979.9034265.7574071 1.7355002 1.39 2.44 1.74 1.74 2.77 2.72 2.99 4.91.0290238.2795555-.0623885.558241-.2513536.7662935s-.457596.325778-.7386464.3237065h-27c-.2704971.0001218-.5295053-.1093432-.7179284-.303419-.1884231-.1940759-.2901865-.4562056-.2820716-.726581.32-7.36 4.03-11.58 5-13.97.8732625-1.8404922 1.4310291-3.814648 1.65-5.84.3024956-2.5574728-.0805967-5.1493858-1.11-7.51-1.68-3.839-5.45-5.919-5.54-11.849-.0415883-2.2337229.2310803-4.4622002.81-6.62.765818-2.61381554 2.3588826-4.90867061 4.54-6.54 5.79-4.55 10.89-5.84 21.05-3.49 2.78.64 5.52 1.55 7.5 3.64 1.3483134 1.44587823 2.3893051 3.150247 3.06 5.01.3206889.9247363.5779522 1.8702624.77 2.83.36 1.55 1.49 3.14 1.36 4.02-.15 1.12-1.82 1.6-1.84 2.75.3220939 1.5296811.9293396 2.9850355 1.79 4.29 3.52 3.8 3.45 4.04 2.1 5.05-.64.479-1.96.809-2.12 1.669-.0372827.2003865-.0480417.404807-.032.608 0 0-2.535.96-2.757 2.982z" fill="#fdd7ad"/><path id="Shape" d="m18 34c-.5522847 0-1 .4477153-1 1v.586l-9.293-9.293c-.39237889-.3789722-1.01608478-.3735524-1.40181858.0121814-.38573379.3857338-.39115363 1.0094397-.01218142 1.4018186l9.293 9.293h-.586c-.5522847 0-1 .4477153-1 1s.4477153 1 1 1h3c.5522847 0 1-.4477153 1-1v-3c0-.5522847-.4477153-1-1-1z" fill="#e64c3c"/><path id="Shape" d="m14.707 42.293c-.3923789-.3789722-1.0160848-.3735524-1.4018186.0121814s-.3911536 1.0094397-.0121814 1.4018186l.293.293h-12.586c-.55228475 0-1 .4477153-1 1s.44771525 1 1 1h12.586l-.293.293c-.2599566.2510745-.3642126.6228779-.2726972.9725073.0915155.3496295.3645604.6226744.7141899.7141899.3496294.0915154.7214328-.0127406.9725073-.2726972l2-2c.3903819-.3904999.3903819-1.0235001 0-1.414z" fill="#e64c3c"/><path id="Shape" d="m54.31 36.71c.0576116.0466878.1052257.1045049.14.17l-16.79-2.33c-.26744-.0384472-.5390079.0336319-.7521809.1996428-.213173.1660108-.349581.4116474-.3778191.6803572l-2.53 22.57h-6l2.68-24.25c.1767469-1.6148514 1.0014832-3.0887697 2.2853032-4.0841544 1.2838201-.9953847 2.9167243-1.4269498 4.5246968-1.1958456l18.47 2.56c-.28.11-2.52 1.08-2.73 2.97-.1162843 1.0271599.2891002 2.0443747 1.08 2.71z" fill="#7f6e5d"/><path id="Shape" d="m35.593 43.809-.566 5.049c-.0915571.8168206-.5154355 1.5598932-1.1719383 2.054446-.6565029.4945529-1.4876888.696938-2.2980617.559554-1.5595465-.2652573-2.6425975-1.6993904-2.471-3.272l.558-5.049c.0903147-.817522.5135166-1.5617008 1.169943-2.0572848.6564263-.4955839 1.4880611-.6987724 2.299057-.5617152h.008c1.5620852.2648597 2.6463744 1.7022447 2.472 3.277z" fill="#fb7b76"/></g></g></g></svg>