<?xml version="1.0"?>
<svg xmlns="http://www.w3.org/2000/svg" viewBox="0 0 512 512" width="512" height="512"><g id="Fill_out_line" data-name="Fill out line"><path d="M120,424h40a0,0,0,0,1,0,0v48a0,0,0,0,1,0,0H120a24,24,0,0,1-24-24v0A24,24,0,0,1,120,424Z" style="fill:#f4ceaf"/><path d="M422.37,161.48l-1.64,17.6499L419.06,197.02l-6.69,71.96-1.64,17.68018-6.58,70.68994L402.51,375.02l-2.31,24.79-1.5,16.10986-2.65,28.53028A47.94358,47.94358,0,0,1,348.26,488H135.63a15.99259,15.99259,0,0,1-14.85-21.93994l15.68-39.22022,1.58-3.93994a32.01685,32.01685,0,0,1,21.47-19.02978l1.84-.49024,15.88-4.23974,24.53-6.54,20.2-5.39014,11.27-3.00976a39.98876,39.98876,0,0,0,29.67-40.02l-1.86-54.03028-.66-19.06006-2.63-76.21-.65-19.05981-.53-15.27A15.99972,15.99972,0,0,1,272.56,144H406.44A15.99506,15.99506,0,0,1,422.37,161.48Z" style="fill:#8acce7"/><path d="M406.44255,144l5.23856-48.23388A738.76483,738.76483,0,0,0,416,16v0H272l.56123,128Z" style="fill:#f4ceaf"/><path d="M424.18164,143.835a24.01249,24.01249,0,0,0-9.00323-6.17895l4.45587-41.02613A749.74594,749.74594,0,0,0,424,16H408a733.77741,733.77741,0,0,1-4.272,78.90234L399.26428,136H280.52612L280,15.96484l-16,.07032.5318,121.33593a24.03745,24.03745,0,0,0-15.95612,23.45606l6.332,183.625a31.85226,31.85226,0,0,1-23.73632,32.02246l-73.72657,19.66016A40.201,40.201,0,0,0,132.45026,416H120a31.99311,31.99311,0,0,0-7.27209,63.15039A23.97278,23.97278,0,0,0,135.63232,496H348.25781a55.75182,55.75182,0,0,0,55.75977-50.8125l26.32129-282.96387A24.04713,24.04713,0,0,0,424.18164,143.835ZM270.898,343.90137l-1.68463-48.85254,125.686,75.41162-2.54712,27.38184L266.254,366.31738A48.07636,48.07636,0,0,0,270.898,343.90137Zm-2.34168-67.90723-2.628-76.2124L403.119,282.09668l-6.57569,70.68994ZM265.27118,180.728l-.70526-20.45166A7.99986,7.99986,0,0,1,272.561,152H341.7832l69.55548,41.73364-6.57562,70.6897ZM372.8833,152h33.55908a7.9993,7.9993,0,0,1,7.96533,8.74121l-1.425,15.3186ZM210.3244,398.59229,326.62109,480H220.77863l-39.64356-73.62354Zm-48.757,13.00244,3.67694-.98047L202.606,480H166.24634L150.7204,417.89746A24.04787,24.04787,0,0,1,161.56738,411.59473ZM104,448a16.01833,16.01833,0,0,1,16-16h5.784l-12.24854,30.62012A16.07926,16.07926,0,0,1,104,448Zm25.00781,28.48535a7.8878,7.8878,0,0,1-.80322-7.45605l11.57306-28.93262L149.7536,480H135.63232A7.88768,7.88768,0,0,1,129.00781,476.48535Zm224.9458,3.11719L230.52814,393.20459l4.76581-1.271a48.05768,48.05768,0,0,0,20.84588-11.65283L390.853,413.959l-2.767,29.7461A39.798,39.798,0,0,1,353.95361,479.60254Z"/></g></svg>
