<svg id="Capa_1" enable-background="new 0 0 512.04 512.04" height="512" viewBox="0 0 512.04 512.04" width="512" xmlns="http://www.w3.org/2000/svg"><g><path d="m361.019 287v151.8c0 37.67-28.77 73.24-74.93 73.24-31.63 0-62-5.79-90.07-16.39-96-36.27-165-128.86-165-238.65v-15l-31-30v-60h31v-152h60l30 92h15c8.27 0 15-6.73 15-15v-77h90v106.93c72.21 30.26 120 101.31 120 180.07z" fill="#e63950"/><path d="m361.019 287v151.8c0 37.67-28.77 73.24-74.93 73.24-31.63 0-62-5.79-90.07-16.39v-495.65h45v106.93c72.21 30.26 120 101.31 120 180.07z" fill="#cd0000"/><path d="m151.019 257v45h-30v-45c0-8.27-6.73-15-15-15h-106v-30h106c24.81 0 45 20.19 45 45z" fill="#ff6c6c"/><g fill="#ffbfab"><path d="m409.519 213.072-24.175-17.764 39.307-53.492 38.452 17.93 24.743-33.672 24.175 17.764-39.307 53.492-38.452-17.931z"/><path d="m487.846 477.927-24.743-33.673-38.452 17.931-39.307-53.492 24.175-17.764 24.743 33.673 38.452-17.931 39.307 53.492z"/><path d="m414.843 287h94.868v30h-94.868z" transform="matrix(.949 -.316 .316 .949 -71.776 161.674)"/></g><path d="m211.019 257v45h-30v-45c0-41.36-33.65-75-75-75h-15v-182h30v153.07c31.82 4.57 59.07 23.45 75 49.9 9.52 15.8 15 34.29 15 54.03z" fill="#ff6c6c"/><path d="m211.019 257v45h-15v-99.03c9.52 15.8 15 34.29 15 54.03z" fill="#e63950"/></g></svg>