<svg id="Layer_1" enable-background="new 0 0 256 256" height="512" viewBox="0 0 256 256" width="512" xmlns="http://www.w3.org/2000/svg"><path d="m224.485 171.842h.002l-.03-.052c-.254-.475-.516-.944-.794-1.4l-8.98-15.828h-11.541-11.541l-8.98 15.828c-.278.456-.54.925-.794 1.4l-.03.052h.002c-2.163 4.069-3.409 8.807-3.409 13.869 0 15.129 11.082 27.394 24.752 27.394s24.752-12.265 24.752-27.394c0-5.063-1.246-9.801-3.409-13.869z" fill="#4671c6"/><path d="m203.142 199.505c7.841 0 15.275-.417 21.96-1.16 1.78-3.781 2.792-8.076 2.792-12.634 0-.043-.004-.085-.004-.128-7.38.954-15.79 1.505-24.748 1.505s-17.367-.55-24.748-1.505c0 .043-.004.085-.004.128 0 4.559 1.012 8.853 2.792 12.634 6.685.743 14.119 1.16 21.96 1.16z" fill="#ffea92"/><path d="m182.597 170.432c6.469.512 13.368.795 20.545.795s14.077-.282 20.545-.795c-.008-.014-.016-.029-.024-.042l-8.98-15.828h-11.541-11.541l-8.98 15.828c-.009.014-.016.028-.024.042z" fill="#ffea92"/><path d="m203.143 215.104c-14.751 0-26.752-13.186-26.752-29.394 0-5.167 1.242-10.253 3.594-14.714.021-.047.046-.094.072-.141.277-.518.56-1.02.857-1.508l8.947-15.772c.354-.626 1.02-1.013 1.739-1.013h23.083c.72 0 1.384.387 1.739 1.013l8.98 15.827c.266.434.547.935.818 1.444.001.001.029.055.029.056 2.383 4.482 3.643 9.603 3.643 14.808.002 16.208-11.998 29.394-26.749 29.394zm-19.548-42.38c-.01.019-.02.038-.029.056-2.077 3.907-3.175 8.378-3.175 12.93 0 14.002 10.206 25.394 22.752 25.394 12.545 0 22.751-11.392 22.751-25.394 0-4.553-1.098-9.024-3.174-12.93-.001-.001-.002-.003-.003-.005l-.027-.052c-.231-.433-.474-.869-.732-1.292l-8.438-14.869h-20.753l-8.405 14.814c-.291.476-.533.91-.767 1.348z" fill="#3762cc"/><path d="m198.604 157.871c-15.497 0-28.104-12.336-28.104-27.5 0-1.381 1.119-2.5 2.5-2.5s2.5 1.119 2.5 2.5c0 12.407 10.364 22.5 23.104 22.5 1.381 0 2.5 1.119 2.5 2.5s-1.119 2.5-2.5 2.5z" fill="#3762cc"/><path d="m207.396 157.871c-1.381 0-2.5-1.119-2.5-2.5s1.119-2.5 2.5-2.5c12.74 0 23.104-10.093 23.104-22.5 0-1.381 1.119-2.5 2.5-2.5s2.5 1.119 2.5 2.5c0 15.163-12.607 27.5-28.104 27.5z" fill="#3762cc"/><path d="m163.848 231.314h-138.73v-19.505c0-17.878 14.493-32.37 32.37-32.37h73.989c17.878 0 32.37 14.493 32.37 32.37v19.505z" fill="#6bdddd"/><path d="m155.002 94.595c-.128 0-.252.016-.38.019v-5.623c0-32.87-26.925-59.516-60.139-59.516-33.214 0-60.139 26.646-60.139 59.516v5.623c-.128-.003-.252-.019-.38-.019-10.133 0-18.348 8.129-18.348 18.157s8.215 18.157 18.348 18.157c.666 0 1.321-.039 1.969-.108 6.206 26.33 30.055 45.949 58.551 45.949 28.496 0 52.345-19.62 58.551-45.949.647.068 1.303.108 1.969.108 10.133 0 18.348-8.129 18.348-18.157-.002-10.027-8.217-18.157-18.35-18.157z" fill="#f9cfcf"/><path d="m94.483 178.751c-28.457 0-52.924-18.766-60.086-45.846-11.407.284-20.781-8.895-20.781-20.153 0-10.575 8.262-19.273 18.728-20.094v-3.668c0-33.92 27.876-61.516 62.14-61.516s62.139 27.596 62.139 61.516v3.667c10.465.82 18.728 9.52 18.728 20.094 0 11.258-9.361 20.425-20.78 20.153-7.164 27.081-31.631 45.847-60.088 45.847zm-58.548-49.949c.917 0 1.73.63 1.944 1.541 6.163 26.147 29.439 44.408 56.604 44.408s50.441-18.261 56.604-44.408c.23-.98 1.151-1.638 2.156-1.53.616.065 1.191.097 1.759.097 9.014 0 16.347-7.249 16.347-16.158 0-8.906-7.329-16.153-16.339-16.157-.165.011-.257.017-.351.019-.527.028-1.056-.196-1.438-.572-.384-.376-.6-.891-.6-1.428v-5.624c0-31.714-26.081-57.516-58.139-57.516-32.059 0-58.14 25.801-58.14 57.516v5.624c0 .537-.216 1.052-.6 1.428-.383.376-.879.601-1.438.572-.094-.001-.187-.007-.279-.014-.003 0-.006 0-.009 0-9.072 0-16.401 7.247-16.401 16.153 0 8.909 7.334 16.158 16.348 16.158.566 0 1.142-.032 1.759-.097.072-.008.142-.012.213-.012z" fill="#3762cc"/><path d="m105.918 150.565c-1.104 0-2-.896-2-2 0-1.447-.629-2.845-1.819-4.043-1.052-1.059-2.487-1.886-4.152-2.392-1.001-.304-2.137-.452-3.471-.452s-2.47.148-3.471.452c-1.665.506-3.101 1.333-4.152 2.392-1.19 1.198-1.819 2.597-1.819 4.043 0 1.104-.896 2-2 2s-2-.896-2-2c0-2.49 1.059-4.927 2.981-6.862 1.517-1.527 3.531-2.703 5.828-3.4 1.383-.42 2.898-.625 4.633-.625s3.25.204 4.633.625c2.297.698 4.313 1.874 5.828 3.4 1.923 1.935 2.981 4.372 2.981 6.862 0 1.104-.896 2-2 2z" fill="#3762cc"/><path d="m14.586 73.527c-2.721-7.287-2.915-15.277-.549-22.687l.203-.637c3.87-12.122 14.066-21.153 26.567-23.531 5.9-1.122 11.991-.694 17.676 1.244l.664.227c.038.344.096.69.181 1.034 2.73 11.158 7.741 21.442 14.55 30.279-5.909 16.464-13.139 25.85-18.651 31.046v.001l-7.234 7.343-14.028-3.252c-3.833 0-7.389 1.166-10.332 3.155z" fill="#4671c6"/><path d="m94.483 178.751c-29.029 0-53.906-19.529-60.497-47.49-.141-.595-.001-1.221.378-1.7.38-.479.957-.759 1.568-.759h117.102c.611 0 1.188.279 1.568.759.379.479.519 1.105.378 1.7-6.59 27.962-31.467 47.49-60.497 47.49zm-55.967-45.949c7.005 24.825 29.664 41.949 55.968 41.949s48.963-17.125 55.968-41.949z" fill="#3762cc"/><path d="m51.623 158.961c10.905 10.978 26.074 17.79 42.86 17.79 16.778 0 31.941-6.807 42.845-17.776v-28.174h-85.705z" fill="#e0ebfc"/><g fill="#f9a7a7"><circle cx="46.992" cy="109.236" r="3.857"/><circle cx="105.918" cy="117.317" r="3.857"/><circle cx="125.193" cy="88.881" r="3.857"/><circle cx="133.049" cy="90.452" r="2.786"/><circle cx="39.789" cy="121.173" r="3.857"/><path d="m99.451 77.757c-2.234-1.54-4.777-2.199-7.265-2.099-.883.035-1.726-.307-2.347-.936-2.798-2.832-6.942-4.254-11.03-3.408-4.384.907-7.681 4.072-8.984 8.006-.597 1.803-1.814 3.335-3.342 4.463-.877.647-1.744 1.726-2.578 3.526-.463.998-.64 2.137-.392 3.209.783 3.387 4.168 5.492 7.551 4.698.318-.075.624-.172.918-.291 1.814-.734 3.841-.907 5.709-.323.703.22 1.43.375 2.171.462 2.071.242 3.988 1.105 5.67 2.337.236.173.481.339.735.496 5.776 3.581 13.401 1.682 16.802-4.27 3.057-5.353 1.458-12.371-3.618-15.87z"/></g><path d="m165.753 48.572c-4.719-14.641-15.496-26.274-29.275-32.01l.001-.008c-48.44-23.845-74.933 4.923-74.933 4.923-1.994 1.919-2.919 4.837-2.218 7.7 5.561 22.731 20.544 41.869 41.047 52.431l.029.015c4.426 2.28 9.048 4.142 13.807 5.562 1.184.353 2.138-1.017 1.421-2.04l-9.96-14.213c-.868-1.239.657-2.751 1.841-1.824 11.013 8.624 32.412 22.911 54.057 23.628l3.525-9.653c4.051-11.093 4.283-23.263.658-34.511z" fill="#4671c6"/><circle cx="145.226" cy="109.236" fill="#f9a7a7" r="3.857"/><path d="m47.991 99.848c-.15 0-.302-.017-.452-.052l-13.798-3.199c-3.224.042-6.328 1.012-8.989 2.811-.508.343-1.145.436-1.729.248-.584-.187-1.05-.631-1.265-1.205l-9.046-24.223c-2.865-7.671-3.071-16.193-.581-23.995l.203-.637c4.098-12.834 14.864-22.371 28.099-24.888 6.228-1.184 12.693-.73 18.695 1.316l.664.227c.734.25 1.257.902 1.343 1.673.029.271.075.534.136.78 2.643 10.806 7.418 20.743 14.19 29.533.416.54.528 1.255.299 1.896-6.17 17.189-13.826 26.794-19.162 31.826l-7.182 7.292c-.38.386-.895.597-1.425.597zm-14.027-7.253c.152 0 .304.018.452.052l12.937 3 6.448-6.545c4.966-4.685 11.993-13.501 17.823-29.303-6.76-9.014-11.549-19.148-14.238-30.139-5.218-1.694-10.813-2.049-16.205-1.022-11.792 2.242-21.386 10.738-25.036 22.173l-.203.636c-2.219 6.952-2.035 14.545.519 21.38l8.212 21.991c2.862-1.46 6.03-2.223 9.291-2.223z" fill="#3762cc"/><path d="m161.569 94.738c-.021 0-.044 0-.066-.001-20.087-.666-39.868-12.652-51.674-21.355l7.439 10.616c.828 1.181.818 2.702-.026 3.873-.831 1.155-2.25 1.638-3.604 1.232-4.868-1.453-9.629-3.371-14.15-5.701-21.065-10.852-36.4-30.437-42.103-53.749-.844-3.45.203-7.114 2.733-9.577.66-.701 7.473-7.706 20.099-11.899 11.923-3.961 31.516-6.032 57.145 6.584.016.008.031.016.047.023 14.377 6.04 25.396 18.123 30.248 33.175 3.747 11.625 3.504 24.343-.683 35.812l-3.525 9.653c-.29.791-1.042 1.314-1.88 1.314zm-54.853-27.921c.706 0 1.417.238 2.029.718 10.44 8.175 30.808 21.864 51.45 23.135l3.021-8.271c3.884-10.636 4.108-22.432.634-33.213-4.51-13.993-14.767-25.21-28.141-30.777-.093-.039-.182-.083-.266-.134-19.183-9.407-37.767-11.61-53.755-6.372-12.115 3.97-18.609 10.863-18.674 10.932-.025.028-.055.058-.082.083-1.536 1.479-2.174 3.695-1.663 5.784 5.428 22.187 20.015 40.822 40.021 51.129 3.728 1.92 7.603 3.54 11.563 4.835l-8.819-12.586c-.96-1.369-.776-3.197.436-4.345.641-.61 1.441-.918 2.246-.918z" fill="#3762cc"/><path d="m94.483 178.751c-16.779 0-32.505-6.528-44.279-18.38-.372-.375-.581-.881-.581-1.41v-28.159c0-1.104.896-2 2-2h85.705c1.104 0 2 .896 2 2v28.174c0 .528-.209 1.035-.582 1.41-11.773 11.843-27.493 18.365-44.263 18.365zm-40.86-20.622c10.952 10.727 25.429 16.623 40.86 16.623 15.422 0 29.895-5.892 40.845-16.608v-25.341h-81.705z" fill="#3762cc"/><path d="m134.676 125.675h-10.853v-7.434h10.853c2.053 0 3.717 1.664 3.717 3.717 0 2.053-1.664 3.717-3.717 3.717z" fill="#a4c9ff"/><path d="m64.726 125.67c-3.803 0-6.897-3.089-6.897-6.887v-11.479c0-3.798 3.094-6.887 6.897-6.887 3.802 0 6.896 3.09 6.896 6.887v11.479c.001 3.798-3.093 6.887-6.896 6.887z" fill="#3762cc"/><path d="m124.212 125.67c-3.803 0-6.897-3.089-6.897-6.887v-11.479c0-3.798 3.094-6.887 6.897-6.887 3.802 0 6.896 3.09 6.896 6.887v11.479c0 3.798-3.094 6.887-6.896 6.887z" fill="#3762cc"/><path d="m127.391 132.96v-7.285h7.434v7.285c0 2.053-1.664 3.717-3.717 3.717-2.053 0-3.717-1.664-3.717-3.717z" fill="#a4c9ff"/><path d="m135.298 104.639c-.133 0-.267-.013-.401-.041l-21.775-4.442c-1.083-.221-1.781-1.277-1.561-2.359s1.278-1.783 2.359-1.56l21.775 4.442c1.083.221 1.781 1.277 1.561 2.359-.193.948-1.027 1.601-1.958 1.601z" fill="#3762cc"/><path d="m53.653 104.639c-.931 0-1.765-.653-1.958-1.601-.221-1.083.478-2.139 1.561-2.359l21.775-4.442c1.087-.223 2.139.478 2.359 1.56.221 1.083-.478 2.139-1.561 2.359l-21.775 4.442c-.134.028-.269.041-.401.041z" fill="#3762cc"/><path d="m98.928 176.572c-.243.019-.485.04-.729.055-.377.023-.755.043-1.134.059-.857.039-1.716.065-2.582.065s-1.726-.027-2.583-.065c-.379-.016-.757-.036-1.135-.059-.243-.016-.484-.036-.726-.055-8.857-.642-17.182-3.166-24.557-7.197v6.91c0 16.066 12.566 29.091 28.067 29.091h1.866c15.501 0 28.067-13.025 28.067-29.091v-6.911c-7.373 4.032-15.698 6.556-24.554 7.198z" fill="#f9cfcf"/><path d="m163.848 233.314h-138.73c-1.104 0-2-.896-2-2v-19.504c0-18.952 15.418-34.37 34.37-34.37h6.017c-.015-.387-.021-.772-.021-1.154v-6.91c0-.706.372-1.36.979-1.72.607-.361 1.36-.374 1.979-.035 7.329 4.006 15.316 6.347 23.742 6.957l.709.054c.358.022.724.042 1.092.057 1.662.074 3.334.074 4.99 0 .371-.016.737-.035 1.103-.057l.692-.053c8.437-.611 16.424-2.952 23.754-6.958.619-.338 1.372-.326 1.979.035s.979 1.014.979 1.72v6.911c0 .38-.007.766-.021 1.154h6.016c18.952 0 34.37 15.418 34.37 34.37v19.505c.001 1.103-.895 1.998-1.999 1.998zm-136.73-4h134.729v-17.504c0-16.746-13.624-30.37-30.37-30.37h-8.161c-.566 0-1.106-.24-1.485-.661s-.563-.982-.504-1.545c.104-1.001.156-1.993.156-2.948v-3.639c-7.01 3.36-14.532 5.349-22.411 5.92l-.745.057c-.396.024-.785.044-1.177.061-1.763.081-3.569.081-5.34 0-.387-.017-.777-.037-1.166-.061l-.762-.058c-7.869-.57-15.391-2.558-22.399-5.918v3.638c0 .964.053 1.955.156 2.946.059.563-.124 1.125-.503 1.547-.38.421-.92.661-1.486.661h-8.162c-16.746 0-30.37 13.624-30.37 30.37z" fill="#3762cc"/><path d="m202.927 146.708-27.426 5.897c-8.454 1.818-14.446 9.355-14.311 18.001.152 9.789 8.051 17.687 17.84 17.84 8.646.134 16.183-5.858 18-14.311z" fill="#a4c9ff"/><path d="m201.867 146.708 27.426 5.897c8.454 1.818 14.446 9.355 14.312 18.001-.152 9.789-8.051 17.687-17.84 17.84-8.646.134-16.183-5.858-18-14.311z" fill="#a4c9ff"/><path d="m203.142 248.902c-1.381 0-2.5-1.119-2.5-2.5v-9.167c0-1.381 1.119-2.5 2.5-2.5s2.5 1.119 2.5 2.5v9.167c0 1.38-1.119 2.5-2.5 2.5z" fill="#f9a7a7"/><path d="m217.874 241.559c-.64 0-1.279-.244-1.768-.732l-6.482-6.482c-.977-.976-.977-2.559 0-3.536s2.559-.976 3.535 0l6.482 6.482c.977.976.977 2.559 0 3.536-.488.488-1.128.732-1.767.732z" fill="#f9a7a7"/><path d="m188.021 241.559c-.64 0-1.279-.244-1.768-.732-.977-.976-.977-2.559 0-3.536l6.481-6.482c.977-.976 2.559-.976 3.535 0s.977 2.559 0 3.536l-6.481 6.482c-.488.488-1.127.732-1.767.732z" fill="#f9a7a7"/><path d="m224.754 227.077h-9.167c-1.381 0-2.5-1.119-2.5-2.5s1.119-2.5 2.5-2.5h9.167c1.381 0 2.5 1.119 2.5 2.5s-1.12 2.5-2.5 2.5z" fill="#f9a7a7"/><path d="m190.698 227.077h-9.167c-1.381 0-2.5-1.119-2.5-2.5s1.119-2.5 2.5-2.5h9.167c1.381 0 2.5 1.119 2.5 2.5s-1.119 2.5-2.5 2.5z" fill="#f9a7a7"/><path d="m179.311 190.448c-.104 0-.209 0-.313-.002-10.938-.17-19.639-8.872-19.808-19.809-.148-9.569 6.534-17.975 15.891-19.986l27.426-5.897c.664-.144 1.355.061 1.835.541s.684 1.171.541 1.834l-5.897 27.426c-1.992 9.254-10.237 15.893-19.675 15.893zm21.009-41.134-24.398 5.247c-7.497 1.612-12.853 8.347-12.732 16.014.136 8.764 7.106 15.735 15.87 15.871.083.001.167.002.251.002 7.563.001 14.169-5.319 15.764-12.734z" fill="#3762cc"/><path d="m225.482 190.448c-9.439 0-17.684-6.638-19.673-15.893l-5.897-27.426c-.143-.664.061-1.354.541-1.834.479-.48 1.165-.685 1.835-.541l27.426 5.897c9.356 2.012 16.039 10.417 15.891 19.987-.171 10.937-8.871 19.638-19.809 19.809-.105 0-.209.001-.314.001zm-21.008-41.134 5.246 24.4c1.612 7.497 8.328 12.854 16.014 12.732 8.764-.136 15.735-7.107 15.871-15.871.12-7.667-5.235-14.402-12.732-16.014z" fill="#3762cc"/><path d="m205.326 121.24c-1.381 0-2.5-1.119-2.5-2.5 0-9.227 7.506-16.733 16.732-16.733 1.381 0 2.5 1.119 2.5 2.5s-1.119 2.5-2.5 2.5c-6.47 0-11.732 5.263-11.732 11.733 0 1.381-1.119 2.5-2.5 2.5z" fill="#3762cc"/><path d="m198.504 121.24c-1.381 0-2.5-1.119-2.5-2.5 0-6.47-5.263-11.733-11.732-11.733-1.381 0-2.5-1.119-2.5-2.5s1.119-2.5 2.5-2.5c9.227 0 16.732 7.506 16.732 16.733 0 1.381-1.119 2.5-2.5 2.5z" fill="#3762cc"/><circle cx="202.927" cy="134.276" fill="#4671c6" r="18.503"/><path d="m202.927 154.779c-11.306 0-20.503-9.198-20.503-20.503s9.197-20.502 20.503-20.502 20.503 9.197 20.503 20.502-9.198 20.503-20.503 20.503zm0-37.006c-9.1 0-16.503 7.403-16.503 16.502s7.403 16.503 16.503 16.503 16.503-7.403 16.503-16.503-7.404-16.502-16.503-16.502z" fill="#3762cc"/><path d="m203.142 213.104c-1.731 0-3.421-.198-5.052-.573l4.258 13.14c.249.77 1.338.77 1.587 0l4.258-13.14c-1.63.375-3.319.573-5.051.573z" fill="#a4c9ff"/><path d="m203.142 228.249c-1.232 0-2.316-.788-2.696-1.961l-4.258-13.139c-.223-.685-.059-1.437.428-1.967.485-.531 1.22-.76 1.922-.599 3.02.692 6.192.692 9.21 0 .704-.162 1.437.067 1.922.598.486.531.65 1.283.428 1.968l-4.259 13.14c-.38 1.171-1.464 1.96-2.697 1.96zm-2.147-13.239 2.146 6.623 2.147-6.623c-1.427.126-2.863.125-4.293 0z" fill="#3762cc"/></svg>